<?xml version="1.0" encoding="UTF-8"?>
<svg width="618px" height="222px" viewBox="0 0 618 222" version="1.1" xmlns="http://www.w3.org/2000/svg" xmlns:xlink="http://www.w3.org/1999/xlink">
    <!-- Generator: Sketch 54.1 (76490) - https://sketchapp.com -->
    <title>Extend Logo With Slogan </title>
    <desc>Purchase Protection Done Right.</desc>
    <g id="Extend_logo_slogan-Copy" stroke="none" stroke-width="1" fill="none" fill-rule="evenodd">
        <g id="Extend_logo">
            <path d="M91.8909929,0 L91.8909929,21.4727915 L27.4757122,21.4727915 L27.4757122,58.8212014 L89.1434217,58.8212014 L89.1434217,80.2939929 L27.4757122,80.2939929 L27.4757122,120.695406 L93.3156595,120.695406 L93.3156595,142.168198 L0,142.168198 L0,0 L91.8909929,0 Z M257.661123,21.8798587 L259.696361,21.8798587 L259.696361,47.1180212 L292.260168,47.1180212 L292.260168,66.0466431 L259.696361,66.0466431 L259.696361,109.908127 C259.696361,114.182354 260.985332,117.64239 263.563313,120.288339 C266.141294,122.934289 269.669004,124.257244 274.14655,124.257244 C279.980928,124.257244 286.697146,122.154085 294.295406,117.947703 L294.295406,137.99576 C285.272473,141.998607 276.792399,144 268.854932,144 C258.135958,144 249.774606,141.082715 243.770624,135.248057 C237.766642,129.413398 234.764696,121.509591 234.764696,111.536396 L234.764696,66.0466431 L219.907459,66.0466431 L219.907459,61.9759717 L257.661123,21.8798587 Z M351.078544,45.2862191 C365.053915,45.2862191 376.11193,49.7639128 384.252923,58.7194346 C392.393915,67.6749564 396.46435,80.0564581 396.46435,95.864311 L396.46435,99.629682 L329.199737,99.629682 C330.217361,108.11029 333.388908,114.64026 338.714474,119.219788 C344.04004,123.799316 351.349863,126.089046 360.644163,126.089046 C366.614224,126.089046 372.363714,125.054427 377.892804,122.985159 C383.421895,120.915891 389.137464,117.778113 395.039684,113.571731 L395.039684,132.195053 C383.913661,140.065057 370.413384,144 354.538449,144 C339.545454,144 327.300229,139.488384 317.802404,130.465018 C308.30458,121.441651 303.555739,109.433291 303.555739,94.439576 C303.555739,79.9886203 307.948416,68.1837914 316.733904,59.024735 C325.519392,49.8656786 336.967491,45.2862191 351.078544,45.2862191 Z M372.957352,84.4664311 C372.278936,77.5462552 370.175878,72.1357086 366.648115,68.234629 C363.120351,64.3335494 358.269749,62.3830389 352.096163,62.3830389 C345.786894,62.3830389 340.71581,64.2487446 336.88276,67.980212 C333.049709,71.7116794 330.624408,77.2070308 329.606784,84.4664311 L372.957352,84.4664311 Z M471.157583,45.2862191 C481.333823,45.2862191 489.457734,48.6275284 495.529557,55.3102473 C501.601381,61.9929663 504.637247,70.7957051 504.637247,81.7187279 L504.637247,142.168198 L479.705582,142.168198 L479.705582,84.2628975 C479.705582,78.0890151 478.230049,73.2042583 475.27894,69.6084806 C472.32783,66.0127029 468.308275,64.214841 463.220155,64.214841 C459.353183,64.214841 455.723712,65.3512254 452.331632,67.6240283 C448.939552,69.8968312 445.208319,73.6791255 441.137823,78.9710247 L441.137823,142.168198 L416.104397,142.168198 L416.104397,47.1180212 L441.137823,47.1180212 L441.137823,60.44947 C445.751052,55.021881 450.482933,51.1378209 455.333608,48.7971731 C460.184282,46.4565254 465.458888,45.2862191 471.157583,45.2862191 Z M593.068335,49.2551237 L593.068335,0 L618,0 L618,142.168198 L574.038861,142.168198 C558.842341,142.168198 546.681916,137.79227 537.55722,129.040283 C528.432525,120.288295 523.870245,108.347779 523.870245,93.2183746 C523.870245,84.2628527 525.990264,76.1215914 530.230364,68.7943463 C534.470464,61.4671012 540.304755,55.7173353 547.73341,51.5448763 C555.162066,47.3724173 563.184215,45.2862191 571.800099,45.2862191 C578.448576,45.2862191 585.537917,46.609174 593.068335,49.2551237 Z M579.941051,123.036042 C559.656411,123.036042 549.514243,112.825544 549.514243,92.4042403 C549.514243,83.9236325 552.007385,77.0714042 556.993743,71.8473498 C561.980101,66.6232954 568.645438,64.0113074 576.989956,64.0113074 C582.552967,64.0113074 587.912373,65.3342624 593.068335,67.980212 L593.068335,123.036042 L579.941051,123.036042 Z M213.316815,141.904509 L182.469943,142.07993 C182.469943,142.07993 160.785005,115.538259 159.619964,113.944568 C154.243518,121.320052 137.912154,142.07993 137.912154,142.07993 L102.360387,142.08 L141.877521,92.8431355 L104.174829,47.4303534 L134.819673,47.2549333 L213.316815,141.904509 Z" id="E-tend" fill="#090637"></path>
            <polygon id="Fill-4" fill="#27AEE4" points="164.558397 68.0432102 180.469056 47.3907175 210.244457 47.4303534 179.440176 85.3278338"></polygon>
        </g>
        <path d="M1,181.072289 L10.0964067,181.072289 C11.5114104,181.072289 12.8614192,181.209001 14.1464735,181.48243 C15.4315279,181.755858 16.572177,182.216362 17.5684551,182.863956 C18.5647332,183.511549 19.358856,184.374995 19.9508473,185.454317 C20.5428387,186.53364 20.8388299,187.864785 20.8388299,189.447791 C20.8388299,191.117144 20.5211808,192.498656 19.885873,193.592369 C19.2505652,194.686083 18.4347845,195.549528 17.4385064,196.182731 C16.4422283,196.815934 15.3521143,197.262047 14.1681316,197.521084 C12.984149,197.780122 11.8579384,197.909639 10.7894663,197.909639 L4.63856269,197.909639 L4.63856269,211.638554 L1,211.638554 L1,181.072289 Z M4.63856269,194.542169 L10.7894663,194.542169 C12.6087567,194.542169 14.0887129,194.132032 15.2293791,193.311747 C16.3700453,192.491462 16.9403699,191.21788 16.9403699,189.490964 C16.9403699,187.764048 16.3700453,186.490466 15.2293791,185.670181 C14.0887129,184.849895 12.6087567,184.439759 10.7894663,184.439759 L4.63856269,184.439759 L4.63856269,194.542169 Z M43.7531116,206.846386 C43.7531116,207.767408 43.7819888,208.630853 43.839744,209.436747 C43.8974993,210.242641 43.9263765,210.97657 43.9263765,211.638554 L40.720976,211.638554 C40.720976,211.091697 40.7065374,210.544849 40.6776598,209.997992 C40.6487822,209.451135 40.6343436,208.889896 40.6343436,208.314257 L40.5477111,208.314257 C40.3166901,208.80355 39.9918217,209.278445 39.5730961,209.738956 C39.1543705,210.199467 38.656239,210.609603 38.0786864,210.969378 C37.5011339,211.329152 36.8513971,211.616967 36.1294564,211.832831 C35.4075158,212.048696 34.6278316,212.156627 33.7903804,212.156627 C32.4620096,212.156627 31.3141412,211.955156 30.3467407,211.552209 C29.3793403,211.149262 28.5779982,210.588022 27.9426904,209.868474 C27.3073826,209.148925 26.8381282,208.278285 26.5349132,207.256526 C26.2316981,206.234767 26.0800928,205.119484 26.0800928,203.910643 L26.0800928,191.433735 L29.4587582,191.433735 L29.4587582,203.565261 C29.4587582,205.263395 29.8341617,206.601735 30.58498,207.580321 C31.3357982,208.558907 32.5053245,209.048193 34.093594,209.048193 C35.1909438,209.048193 36.1366718,208.861113 36.9308066,208.486948 C37.7249413,208.112783 38.3746781,207.580325 38.8800366,206.889558 C39.385395,206.198792 39.7607985,205.378519 40.0062584,204.428715 C40.2517182,203.478911 40.3744462,202.428386 40.3744462,201.277108 L40.3744462,191.433735 L43.7531116,191.433735 L43.7531116,206.846386 Z M50.1639125,196.225904 C50.1639125,195.304882 50.1350353,194.441436 50.0772801,193.635542 C50.0195248,192.829648 49.9906476,192.09572 49.9906476,191.433735 L53.1960481,191.433735 C53.1960481,191.980592 53.2104867,192.52744 53.2393643,193.074297 C53.2682419,193.621154 53.2826805,194.182393 53.2826805,194.758032 L53.369313,194.758032 C53.600334,194.268739 53.9252024,193.793844 54.343928,193.333333 C54.7626536,192.872822 55.2607851,192.462686 55.8383377,192.102912 C56.4158902,191.743137 57.065627,191.455322 57.7875677,191.239458 C58.5095083,191.023593 59.2891925,190.915663 60.1266437,190.915663 C60.3576647,190.915663 60.5886822,190.930053 60.8197033,190.958835 C61.0507243,190.987617 61.2817418,191.04518 61.5127628,191.131526 L61.2961817,194.542169 C60.7186292,194.369477 60.1122081,194.283133 59.4769004,194.283133 C57.3977113,194.283133 55.888878,194.952303 54.9503551,196.290663 C54.0118323,197.629023 53.5425779,199.463844 53.5425779,201.795181 L53.5425779,211.638554 L50.1639125,211.638554 L50.1639125,196.225904 Z M79.0558329,196.48494 C78.3338923,195.621482 77.5542081,194.995484 76.7167569,194.606928 C75.8793058,194.218372 74.9552356,194.024096 73.9445187,194.024096 C72.8182913,194.024096 71.8220281,194.218372 70.9556993,194.606928 C70.0893705,194.995484 69.37466,195.535137 68.8115463,196.225904 C68.2484326,196.91667 67.822494,197.715357 67.5337177,198.621988 C67.2449415,199.528619 67.1005555,200.499995 67.1005555,201.536145 C67.1005555,202.572294 67.2665994,203.54367 67.5986921,204.450301 C67.9307848,205.356932 68.3928199,206.155619 68.9848112,206.846386 C69.5768025,207.537152 70.2915131,208.076805 71.1289642,208.465361 C71.9664154,208.853918 72.9049241,209.048193 73.9445187,209.048193 C76.1680959,209.048193 77.8862889,208.213529 79.0991491,206.544177 L81.61149,208.918675 C80.6296508,210.04117 79.474563,210.861443 78.1461923,211.379518 C76.8178215,211.897593 75.4172776,212.156627 73.9445187,212.156627 C72.3851269,212.156627 70.9557058,211.897593 69.6562126,211.379518 C68.3567195,210.861443 67.2521668,210.127515 66.3425216,209.177711 C65.4328764,208.227907 64.7253852,207.105428 64.2200267,205.810241 C63.7146683,204.515054 63.4619928,203.090369 63.4619928,201.536145 C63.4619928,200.010702 63.7146683,198.600408 64.2200267,197.305221 C64.7253852,196.010034 65.4400957,194.887555 66.3641797,193.937751 C67.2882638,192.987947 68.3928164,192.246823 69.6778708,191.714357 C70.9629251,191.181892 72.3851269,190.915663 73.9445187,190.915663 C75.4461552,190.915663 76.868357,191.174696 78.2111666,191.692771 C79.5539762,192.210846 80.7307218,193.016728 81.7414387,194.110442 L79.0558329,196.48494 Z M85.5099501,179 L88.8886154,179 L88.8886154,194.23996 L88.9752479,194.23996 C89.2062689,193.837013 89.523918,193.441267 89.9282048,193.052711 C90.3324915,192.664155 90.8161845,192.311581 91.3792982,191.99498 C91.9424119,191.678379 92.5704909,191.419345 93.2635539,191.217871 C93.9566169,191.016398 94.6929853,190.915663 95.4726812,190.915663 C96.801052,190.915663 97.9489205,191.117133 98.9163209,191.52008 C99.8837214,191.923027 100.685064,192.484267 101.320371,193.203815 C101.955679,193.923364 102.424933,194.794004 102.728149,195.815763 C103.031364,196.837522 103.182969,197.952805 103.182969,199.161647 L103.182969,211.638554 L99.8043035,211.638554 L99.8043035,199.507028 C99.8043035,197.808894 99.4289,196.470554 98.6780817,195.491968 C97.9272634,194.513382 96.7577371,194.024096 95.1694677,194.024096 C94.0721179,194.024096 93.1263898,194.211176 92.3322551,194.585341 C91.5381204,194.959507 90.8883836,195.491964 90.3830251,196.182731 C89.8776666,196.873497 89.5022631,197.69377 89.2568033,198.643574 C89.0113435,199.593378 88.8886154,200.643903 88.8886154,201.795181 L88.8886154,211.638554 L85.5099501,211.638554 L85.5099501,179 Z M109.333872,194.024096 C110.373467,192.959165 111.607967,192.174869 113.037409,191.671185 C114.466852,191.167501 115.917931,190.915663 117.39069,190.915663 C120.393963,190.915663 122.559752,191.62081 123.888123,193.031124 C125.216494,194.441439 125.880669,196.585662 125.880669,199.463855 L125.880669,208.141566 C125.880669,208.717205 125.909547,209.314421 125.967302,209.933233 C126.025057,210.552045 126.09725,211.120479 126.183883,211.638554 L122.935166,211.638554 C122.819656,211.178043 122.754682,210.667171 122.740243,210.105924 C122.725804,209.544676 122.718585,209.048195 122.718585,208.616466 L122.631953,208.616466 C121.967767,209.652616 121.079794,210.50167 119.968005,211.163655 C118.856216,211.825639 117.520646,212.156627 115.961254,212.156627 C114.92166,212.156627 113.947055,212.02711 113.037409,211.768072 C112.127764,211.509035 111.333641,211.12768 110.655017,210.623996 C109.976393,210.120312 109.434946,209.494314 109.030659,208.745984 C108.626372,207.997654 108.424232,207.134208 108.424232,206.155622 C108.424232,204.48627 108.85739,203.176712 109.723718,202.226908 C110.590047,201.277104 111.665723,200.571957 112.950777,200.111446 C114.235831,199.650935 115.621937,199.36312 117.109134,199.247992 C118.596332,199.132864 119.960779,199.075301 121.202517,199.075301 L122.502004,199.075301 L122.502004,198.470884 C122.502004,197.003005 122.061627,195.894917 121.180859,195.146586 C120.300092,194.398256 119.065592,194.024096 117.477322,194.024096 C116.379972,194.024096 115.304297,194.203981 114.250264,194.563755 C113.19623,194.923529 112.264941,195.477573 111.456367,196.225904 L109.333872,194.024096 Z M119.123339,201.924699 C116.957517,201.924699 115.239324,202.226905 113.968708,202.831325 C112.698093,203.435746 112.062794,204.428708 112.062794,205.810241 C112.062794,207.076646 112.488733,207.976068 113.340623,208.508534 C114.192513,209.041 115.25375,209.307229 116.524365,209.307229 C117.506205,209.307229 118.365301,209.141735 119.101681,208.810743 C119.83806,208.479751 120.4517,208.040833 120.94262,207.493976 C121.43354,206.947119 121.808943,206.306731 122.068842,205.572791 C122.32874,204.838852 122.473126,204.054556 122.502004,203.21988 L122.502004,201.924699 L119.123339,201.924699 Z M132.508051,206.328313 C133.172237,207.162989 133.901386,207.824964 134.695521,208.314257 C135.489655,208.80355 136.493138,209.048193 137.705998,209.048193 C138.225795,209.048193 138.752804,208.99063 139.28704,208.875502 C139.821276,208.760374 140.304969,208.573294 140.738134,208.314257 C141.171298,208.05522 141.517824,207.731428 141.777723,207.342871 C142.037622,206.954315 142.167569,206.486616 142.167569,205.939759 C142.167569,205.392902 142.044841,204.946789 141.799381,204.601406 C141.553921,204.256022 141.229053,203.961012 140.824766,203.716365 C140.420479,203.471719 139.958444,203.277444 139.438647,203.133534 C138.91885,202.989624 138.384622,202.860108 137.835947,202.74498 C136.882985,202.543506 135.973354,202.313254 135.107025,202.054217 C134.240696,201.795179 133.48267,201.456997 132.832923,201.039659 C132.183177,200.622321 131.663387,200.082667 131.273539,199.420683 C130.883691,198.758698 130.68877,197.909644 130.68877,196.873494 C130.68877,195.894908 130.905349,195.031463 131.338513,194.283133 C131.771678,193.534802 132.349222,192.916 133.071162,192.426707 C133.793103,191.937414 134.601664,191.563254 135.496871,191.304217 C136.392077,191.045179 137.316147,190.915663 138.269109,190.915663 C139.71299,190.915663 141.048561,191.203478 142.27586,191.779116 C143.503159,192.354755 144.463325,193.290154 145.156388,194.585341 L142.340834,196.441767 C141.90767,195.722219 141.337345,195.139393 140.629843,194.693273 C139.922341,194.247153 139.063245,194.024096 138.052528,194.024096 C137.590486,194.024096 137.121232,194.081659 136.644751,194.196787 C136.16827,194.311915 135.742331,194.484604 135.366922,194.714859 C134.991513,194.945115 134.681083,195.240125 134.435623,195.5999 C134.190164,195.959674 134.067435,196.36981 134.067435,196.830321 C134.067435,197.26205 134.204602,197.629015 134.47894,197.931225 C134.753277,198.233435 135.128681,198.499664 135.605161,198.72992 C136.081642,198.960175 136.630309,199.161646 137.251178,199.334337 C137.872047,199.507029 138.514564,199.650937 139.17875,199.766064 C140.073956,199.938756 140.925833,200.161813 141.734407,200.435241 C142.54298,200.708669 143.250472,201.075634 143.856902,201.536145 C144.463332,201.996656 144.939806,202.572286 145.286337,203.263052 C145.632869,203.953819 145.806132,204.802873 145.806132,205.810241 C145.806132,206.961518 145.575114,207.94009 145.113072,208.745984 C144.65103,209.551878 144.03739,210.206657 143.272133,210.710341 C142.506876,211.214025 141.64056,211.580989 140.673159,211.811245 C139.705759,212.0415 138.716715,212.156627 137.705998,212.156627 C135.973341,212.156627 134.478946,211.890398 133.222769,211.357932 C131.966592,210.825466 130.833163,209.839699 129.822446,208.400602 L132.508051,206.328313 Z M168.633781,207.968876 C167.420921,209.5231 166.09257,210.609602 164.648689,211.228414 C163.204807,211.847225 161.52993,212.156627 159.624007,212.156627 C158.035737,212.156627 156.606316,211.876007 155.335701,211.314759 C154.065085,210.753511 152.98941,209.997997 152.108642,209.048193 C151.227875,208.098389 150.549261,206.97591 150.07278,205.680723 C149.596299,204.385536 149.358062,203.004023 149.358062,201.536145 C149.358062,199.98192 149.617957,198.55004 150.137754,197.240462 C150.657551,195.930884 151.379481,194.808405 152.303565,193.872992 C153.227649,192.937579 154.324983,192.210846 155.595598,191.692771 C156.866214,191.174696 158.252319,190.915663 159.753955,190.915663 C161.168959,190.915663 162.468433,191.15311 163.652415,191.628012 C164.836398,192.102914 165.854319,192.79367 166.706209,193.700301 C167.558099,194.606932 168.215055,195.71502 168.677097,197.024598 C169.139139,198.334177 169.370157,199.823619 169.370157,201.492972 L169.370157,202.572289 L152.996625,202.572289 C153.05438,203.435747 153.26374,204.263216 153.62471,205.054719 C153.98568,205.846222 154.454935,206.536978 155.032487,207.127008 C155.61004,207.717038 156.288654,208.184737 157.06835,208.53012 C157.848046,208.875504 158.699923,209.048193 159.624007,209.048193 C161.096766,209.048193 162.338485,208.789159 163.349202,208.271084 C164.359919,207.753009 165.26955,206.9903 166.078124,205.982932 L168.633781,207.968876 Z M165.731594,199.722892 C165.673839,197.995975 165.110734,196.614463 164.042261,195.578313 C162.973789,194.542163 161.501052,194.024096 159.624007,194.024096 C157.746961,194.024096 156.230908,194.542163 155.075803,195.578313 C153.920698,196.614463 153.227646,197.995975 152.996625,199.722892 L165.731594,199.722892 Z M187.259757,181.072289 L196.356163,181.072289 C197.771167,181.072289 199.121176,181.209001 200.40623,181.48243 C201.691285,181.755858 202.831934,182.216362 203.828212,182.863956 C204.82449,183.511549 205.618613,184.374995 206.210604,185.454317 C206.802595,186.53364 207.098587,187.864785 207.098587,189.447791 C207.098587,191.117144 206.780937,192.498656 206.14563,193.592369 C205.510322,194.686083 204.694541,195.549528 203.698263,196.182731 C202.701985,196.815934 201.611871,197.262047 200.427888,197.521084 C199.243906,197.780122 198.117695,197.909639 197.049223,197.909639 L190.898319,197.909639 L190.898319,211.638554 L187.259757,211.638554 L187.259757,181.072289 Z M190.898319,194.542169 L197.049223,194.542169 C198.868513,194.542169 200.34847,194.132032 201.489136,193.311747 C202.629802,192.491462 203.200127,191.21788 203.200127,189.490964 C203.200127,187.764048 202.629802,186.490466 201.489136,185.670181 C200.34847,184.849895 198.868513,184.439759 197.049223,184.439759 L190.898319,184.439759 L190.898319,194.542169 Z M212.33985,196.225904 C212.33985,195.304882 212.310972,194.441436 212.253217,193.635542 C212.195462,192.829648 212.166585,192.09572 212.166585,191.433735 L215.371985,191.433735 C215.371985,191.980592 215.386424,192.52744 215.415301,193.074297 C215.444179,193.621154 215.458618,194.182393 215.458618,194.758032 L215.54525,194.758032 C215.776271,194.268739 216.101139,193.793844 216.519865,193.333333 C216.938591,192.872822 217.436722,192.462686 218.014275,192.102912 C218.591827,191.743137 219.241564,191.455322 219.963505,191.239458 C220.685445,191.023593 221.46513,190.915663 222.302581,190.915663 C222.533602,190.915663 222.764619,190.930053 222.99564,190.958835 C223.226661,190.987617 223.457679,191.04518 223.6887,191.131526 L223.472119,194.542169 C222.894566,194.369477 222.288145,194.283133 221.652837,194.283133 C219.573648,194.283133 218.064815,194.952303 217.126292,196.290663 C216.187769,197.629023 215.718515,199.463844 215.718515,201.795181 L215.718515,211.638554 L212.33985,211.638554 L212.33985,196.225904 Z M225.63793,201.536145 C225.63793,199.953138 225.912263,198.514063 226.460938,197.218876 C227.009613,195.923688 227.76042,194.808405 228.713382,193.872992 C229.666343,192.937579 230.806992,192.210846 232.135363,191.692771 C233.463734,191.174696 234.907594,190.915663 236.466985,190.915663 C238.026377,190.915663 239.470237,191.174696 240.798608,191.692771 C242.126978,192.210846 243.267628,192.937579 244.220589,193.872992 C245.173551,194.808405 245.924358,195.923688 246.473033,197.218876 C247.021708,198.514063 247.296041,199.953138 247.296041,201.536145 C247.296041,203.119151 247.021708,204.558226 246.473033,205.853414 C245.924358,207.148601 245.173551,208.263884 244.220589,209.199297 C243.267628,210.13471 242.126978,210.861443 240.798608,211.379518 C239.470237,211.897593 238.026377,212.156627 236.466985,212.156627 C234.907594,212.156627 233.463734,211.897593 232.135363,211.379518 C230.806992,210.861443 229.666343,210.13471 228.713382,209.199297 C227.76042,208.263884 227.009613,207.148601 226.460938,205.853414 C225.912263,204.558226 225.63793,203.119151 225.63793,201.536145 Z M229.276493,201.536145 C229.276493,202.601076 229.442536,203.586843 229.774629,204.493474 C230.106722,205.400105 230.590415,206.191596 231.225723,206.867972 C231.86103,207.544347 232.619057,208.076805 233.499824,208.465361 C234.380592,208.853918 235.369636,209.048193 236.466985,209.048193 C237.564335,209.048193 238.553379,208.853918 239.434147,208.465361 C240.314914,208.076805 241.072941,207.544347 241.708248,206.867972 C242.343556,206.191596 242.827249,205.400105 243.159342,204.493474 C243.491435,203.586843 243.657478,202.601076 243.657478,201.536145 C243.657478,200.471213 243.491435,199.485446 243.159342,198.578815 C242.827249,197.672184 242.343556,196.880693 241.708248,196.204317 C241.072941,195.527942 240.314914,194.995484 239.434147,194.606928 C238.553379,194.218372 237.564335,194.024096 236.466985,194.024096 C235.369636,194.024096 234.380592,194.218372 233.499824,194.606928 C232.619057,194.995484 231.86103,195.527942 231.225723,196.204317 C230.590415,196.880693 230.106722,197.672184 229.774629,198.578815 C229.442536,199.485446 229.276493,200.471213 229.276493,201.536145 Z M263.626257,194.283133 L257.648618,194.283133 L257.648618,204.385542 C257.648618,205.047527 257.663057,205.659134 257.691934,206.220382 C257.720812,206.781629 257.836321,207.270915 258.038464,207.688253 C258.240608,208.105591 258.543818,208.436578 258.948105,208.681225 C259.352392,208.925871 259.929936,209.048193 260.680754,209.048193 C261.171673,209.048193 261.677024,208.99063 262.196822,208.875502 C262.716619,208.760374 263.207531,208.587685 263.669573,208.35743 L263.799522,211.422691 C263.221969,211.681728 262.579452,211.868808 261.87195,211.983936 C261.164448,212.099063 260.493053,212.156627 259.857746,212.156627 C258.644885,212.156627 257.677499,211.998328 256.955559,211.681727 C256.233618,211.365126 255.670513,210.919012 255.266226,210.343373 C254.861939,209.767735 254.594825,209.055392 254.464876,208.206325 C254.334927,207.357258 254.269953,206.414664 254.269953,205.378514 L254.269953,194.283133 L249.851698,194.283133 L249.851698,191.433735 L254.269953,191.433735 L254.269953,185.691767 L257.648618,185.691767 L257.648618,191.433735 L263.626257,191.433735 L263.626257,194.283133 Z M285.890795,207.968876 C284.677935,209.5231 283.349584,210.609602 281.905703,211.228414 C280.461822,211.847225 278.786944,212.156627 276.881021,212.156627 C275.292752,212.156627 273.863331,211.876007 272.592715,211.314759 C271.322099,210.753511 270.246424,209.997997 269.365656,209.048193 C268.484889,208.098389 267.806275,206.97591 267.329794,205.680723 C266.853313,204.385536 266.615076,203.004023 266.615076,201.536145 C266.615076,199.98192 266.874971,198.55004 267.394768,197.240462 C267.914566,195.930884 268.636495,194.808405 269.560579,193.872992 C270.484663,192.937579 271.581997,192.210846 272.852612,191.692771 C274.123228,191.174696 275.509333,190.915663 277.01097,190.915663 C278.425973,190.915663 279.725447,191.15311 280.90943,191.628012 C282.093412,192.102914 283.111333,192.79367 283.963223,193.700301 C284.815113,194.606932 285.47207,195.71502 285.934112,197.024598 C286.396154,198.334177 286.627171,199.823619 286.627171,201.492972 L286.627171,202.572289 L270.253639,202.572289 C270.311394,203.435747 270.520754,204.263216 270.881724,205.054719 C271.242695,205.846222 271.711949,206.536978 272.289501,207.127008 C272.867054,207.717038 273.545668,208.184737 274.325364,208.53012 C275.10506,208.875504 275.956937,209.048193 276.881021,209.048193 C278.35378,209.048193 279.595499,208.789159 280.606216,208.271084 C281.616933,207.753009 282.526565,206.9903 283.335138,205.982932 L285.890795,207.968876 Z M282.988608,199.722892 C282.930853,197.995975 282.367748,196.614463 281.299276,195.578313 C280.230804,194.542163 278.758067,194.024096 276.881021,194.024096 C275.003975,194.024096 273.487923,194.542163 272.332818,195.578313 C271.177713,196.614463 270.48466,197.995975 270.253639,199.722892 L282.988608,199.722892 Z M306.292736,196.48494 C305.570795,195.621482 304.791111,194.995484 303.95366,194.606928 C303.116209,194.218372 302.192139,194.024096 301.181422,194.024096 C300.055194,194.024096 299.058931,194.218372 298.192602,194.606928 C297.326274,194.995484 296.611563,195.535137 296.048449,196.225904 C295.485336,196.91667 295.059397,197.715357 294.770621,198.621988 C294.481845,199.528619 294.337459,200.499995 294.337459,201.536145 C294.337459,202.572294 294.503503,203.54367 294.835595,204.450301 C295.167688,205.356932 295.629723,206.155619 296.221714,206.846386 C296.813706,207.537152 297.528416,208.076805 298.365867,208.465361 C299.203319,208.853918 300.141827,209.048193 301.181422,209.048193 C303.404999,209.048193 305.123192,208.213529 306.336052,206.544177 L308.848393,208.918675 C307.866554,210.04117 306.711466,210.861443 305.383095,211.379518 C304.054725,211.897593 302.654181,212.156627 301.181422,212.156627 C299.62203,212.156627 298.192609,211.897593 296.893116,211.379518 C295.593623,210.861443 294.48907,210.127515 293.579425,209.177711 C292.66978,208.227907 291.962288,207.105428 291.45693,205.810241 C290.951571,204.515054 290.698896,203.090369 290.698896,201.536145 C290.698896,200.010702 290.951571,198.600408 291.45693,197.305221 C291.962288,196.010034 292.676999,194.887555 293.601083,193.937751 C294.525167,192.987947 295.62972,192.246823 296.914774,191.714357 C298.199828,191.181892 299.62203,190.915663 301.181422,190.915663 C302.683058,190.915663 304.10526,191.174696 305.44807,191.692771 C306.790879,192.210846 307.967625,193.016728 308.978342,194.110442 L306.292736,196.48494 Z M323.835806,194.283133 L317.858167,194.283133 L317.858167,204.385542 C317.858167,205.047527 317.872606,205.659134 317.901484,206.220382 C317.930361,206.781629 318.04587,207.270915 318.248014,207.688253 C318.450157,208.105591 318.753367,208.436578 319.157654,208.681225 C319.561941,208.925871 320.139485,209.048193 320.890303,209.048193 C321.381223,209.048193 321.886574,208.99063 322.406371,208.875502 C322.926168,208.760374 323.41708,208.587685 323.879122,208.35743 L324.009071,211.422691 C323.431519,211.681728 322.789001,211.868808 322.081499,211.983936 C321.373997,212.099063 320.702603,212.156627 320.067295,212.156627 C318.854435,212.156627 317.887049,211.998328 317.165108,211.681727 C316.443167,211.365126 315.880062,210.919012 315.475775,210.343373 C315.071488,209.767735 314.804374,209.055392 314.674425,208.206325 C314.544476,207.357258 314.479502,206.414664 314.479502,205.378514 L314.479502,194.283133 L310.061247,194.283133 L310.061247,191.433735 L314.479502,191.433735 L314.479502,185.691767 L317.858167,185.691767 L317.858167,191.433735 L323.835806,191.433735 L323.835806,194.283133 Z M328.340693,191.433735 L331.719359,191.433735 L331.719359,211.638554 L328.340693,211.638554 L328.340693,191.433735 Z M327.561001,183.533133 C327.561001,182.871148 327.799238,182.295518 328.275719,181.806225 C328.7522,181.316932 329.336963,181.072289 330.030026,181.072289 C330.723089,181.072289 331.307852,181.316932 331.784333,181.806225 C332.260814,182.295518 332.499051,182.871148 332.499051,183.533133 C332.499051,184.252681 332.268033,184.842702 331.805991,185.303213 C331.343949,185.763724 330.751967,185.993976 330.030026,185.993976 C329.308085,185.993976 328.716103,185.763724 328.254061,185.303213 C327.792019,184.842702 327.561001,184.252681 327.561001,183.533133 Z M337.263835,201.536145 C337.263835,199.953138 337.538169,198.514063 338.086843,197.218876 C338.635518,195.923688 339.386325,194.808405 340.339287,193.872992 C341.292249,192.937579 342.432898,192.210846 343.761269,191.692771 C345.089639,191.174696 346.533499,190.915663 348.092891,190.915663 C349.652283,190.915663 351.096142,191.174696 352.424513,191.692771 C353.752884,192.210846 354.893533,192.937579 355.846495,193.872992 C356.799456,194.808405 357.550263,195.923688 358.098938,197.218876 C358.647613,198.514063 358.921946,199.953138 358.921946,201.536145 C358.921946,203.119151 358.647613,204.558226 358.098938,205.853414 C357.550263,207.148601 356.799456,208.263884 355.846495,209.199297 C354.893533,210.13471 353.752884,210.861443 352.424513,211.379518 C351.096142,211.897593 349.652283,212.156627 348.092891,212.156627 C346.533499,212.156627 345.089639,211.897593 343.761269,211.379518 C342.432898,210.861443 341.292249,210.13471 340.339287,209.199297 C339.386325,208.263884 338.635518,207.148601 338.086843,205.853414 C337.538169,204.558226 337.263835,203.119151 337.263835,201.536145 Z M340.902398,201.536145 C340.902398,202.601076 341.068442,203.586843 341.400534,204.493474 C341.732627,205.400105 342.21632,206.191596 342.851628,206.867972 C343.486936,207.544347 344.244962,208.076805 345.12573,208.465361 C346.006497,208.853918 346.995541,209.048193 348.092891,209.048193 C349.190241,209.048193 350.179284,208.853918 351.060052,208.465361 C351.94082,208.076805 352.698846,207.544347 353.334154,206.867972 C353.969461,206.191596 354.453154,205.400105 354.785247,204.493474 C355.11734,203.586843 355.283384,202.601076 355.283384,201.536145 C355.283384,200.471213 355.11734,199.485446 354.785247,198.578815 C354.453154,197.672184 353.969461,196.880693 353.334154,196.204317 C352.698846,195.527942 351.94082,194.995484 351.060052,194.606928 C350.179284,194.218372 349.190241,194.024096 348.092891,194.024096 C346.995541,194.024096 346.006497,194.218372 345.12573,194.606928 C344.244962,194.995484 343.486936,195.527942 342.851628,196.204317 C342.21632,196.880693 341.732627,197.672184 341.400534,198.578815 C341.068442,199.485446 340.902398,200.471213 340.902398,201.536145 Z M364.163209,196.225904 C364.163209,195.304882 364.134332,194.441436 364.076577,193.635542 C364.018822,192.829648 363.989944,192.09572 363.989944,191.433735 L367.195345,191.433735 C367.195345,191.980592 367.209784,192.52744 367.238661,193.074297 C367.267539,193.621154 367.281977,194.182393 367.281977,194.758032 L367.36861,194.758032 C367.599631,194.268739 367.924499,193.793844 368.343225,193.333333 C368.76195,192.872822 369.260082,192.462686 369.837634,192.102912 C370.415187,191.743137 371.064924,191.455322 371.786864,191.239458 C372.508805,191.023593 373.288489,190.915663 374.125941,190.915663 C375.454311,190.915663 376.60218,191.117133 377.56958,191.52008 C378.536981,191.923027 379.338323,192.484267 379.973631,193.203815 C380.608938,193.923364 381.078193,194.794004 381.381408,195.815763 C381.684623,196.837522 381.836228,197.952805 381.836228,199.161647 L381.836228,211.638554 L378.457563,211.638554 L378.457563,199.507028 C378.457563,197.808894 378.082159,196.470554 377.331341,195.491968 C376.580523,194.513382 375.410996,194.024096 373.822727,194.024096 C372.725377,194.024096 371.779649,194.211176 370.985514,194.585341 C370.19138,194.959507 369.541643,195.491964 369.036284,196.182731 C368.530926,196.873497 368.155522,197.69377 367.910063,198.643574 C367.664603,199.593378 367.541875,200.643903 367.541875,201.795181 L367.541875,211.638554 L364.163209,211.638554 L364.163209,196.225904 Z M400.332255,181.072289 L412.114268,181.072289 C413.124985,181.072289 414.193441,181.187415 415.319668,181.417671 C416.445896,181.647926 417.564887,182.01489 418.676675,182.518574 C419.788464,183.022258 420.85692,183.677037 421.882076,184.482932 C422.907232,185.288826 423.809644,186.260202 424.58934,187.397088 C425.369036,188.533975 425.989895,189.843533 426.451937,191.325803 C426.913979,192.808073 427.144997,194.484596 427.144997,196.355422 C427.144997,198.226248 426.913979,199.90277 426.451937,201.38504 C425.989895,202.86731 425.369036,204.176868 424.58934,205.313755 C423.809644,206.450642 422.907232,207.422017 421.882076,208.227912 C420.85692,209.033806 419.788464,209.688585 418.676675,210.192269 C417.564887,210.695953 416.445896,211.062917 415.319668,211.293173 C414.193441,211.523428 413.124985,211.638554 412.114268,211.638554 L400.332255,211.638554 L400.332255,181.072289 Z M403.970818,208.271084 L410.901413,208.271084 C412.662949,208.271084 414.29451,208.040832 415.796147,207.580321 C417.297783,207.11981 418.597257,206.407468 419.694607,205.443273 C420.791956,204.479078 421.658272,203.248669 422.29358,201.752008 C422.928888,200.255347 423.246537,198.456503 423.246537,196.355422 C423.246537,194.25434 422.928888,192.455496 422.29358,190.958835 C421.658272,189.462175 420.791956,188.231765 419.694607,187.26757 C418.597257,186.303375 417.297783,185.591033 415.796147,185.130522 C414.29451,184.670011 412.662949,184.439759 410.901413,184.439759 L403.970818,184.439759 L403.970818,208.271084 Z M431.216722,201.536145 C431.216722,199.953138 431.491055,198.514063 432.03973,197.218876 C432.588405,195.923688 433.339212,194.808405 434.292174,193.872992 C435.245135,192.937579 436.385784,192.210846 437.714155,191.692771 C439.042526,191.174696 440.486386,190.915663 442.045777,190.915663 C443.605169,190.915663 445.049029,191.174696 446.3774,191.692771 C447.70577,192.210846 448.84642,192.937579 449.799381,193.872992 C450.752343,194.808405 451.50315,195.923688 452.051825,197.218876 C452.6005,198.514063 452.874833,199.953138 452.874833,201.536145 C452.874833,203.119151 452.6005,204.558226 452.051825,205.853414 C451.50315,207.148601 450.752343,208.263884 449.799381,209.199297 C448.84642,210.13471 447.70577,210.861443 446.3774,211.379518 C445.049029,211.897593 443.605169,212.156627 442.045777,212.156627 C440.486386,212.156627 439.042526,211.897593 437.714155,211.379518 C436.385784,210.861443 435.245135,210.13471 434.292174,209.199297 C433.339212,208.263884 432.588405,207.148601 432.03973,205.853414 C431.491055,204.558226 431.216722,203.119151 431.216722,201.536145 Z M434.855284,201.536145 C434.855284,202.601076 435.021328,203.586843 435.353421,204.493474 C435.685514,205.400105 436.169207,206.191596 436.804514,206.867972 C437.439822,207.544347 438.197849,208.076805 439.078616,208.465361 C439.959384,208.853918 440.948428,209.048193 442.045777,209.048193 C443.143127,209.048193 444.132171,208.853918 445.012939,208.465361 C445.893706,208.076805 446.651733,207.544347 447.28704,206.867972 C447.922348,206.191596 448.406041,205.400105 448.738134,204.493474 C449.070226,203.586843 449.23627,202.601076 449.23627,201.536145 C449.23627,200.471213 449.070226,199.485446 448.738134,198.578815 C448.406041,197.672184 447.922348,196.880693 447.28704,196.204317 C446.651733,195.527942 445.893706,194.995484 445.012939,194.606928 C444.132171,194.218372 443.143127,194.024096 442.045777,194.024096 C440.948428,194.024096 439.959384,194.218372 439.078616,194.606928 C438.197849,194.995484 437.439822,195.527942 436.804514,196.204317 C436.169207,196.880693 435.685514,197.672184 435.353421,198.578815 C435.021328,199.485446 434.855284,200.471213 434.855284,201.536145 Z M458.116096,196.225904 C458.116096,195.304882 458.087219,194.441436 458.029463,193.635542 C457.971708,192.829648 457.942831,192.09572 457.942831,191.433735 L461.148231,191.433735 C461.148231,191.980592 461.16267,192.52744 461.191548,193.074297 C461.220425,193.621154 461.234864,194.182393 461.234864,194.758032 L461.321496,194.758032 C461.552517,194.268739 461.877386,193.793844 462.296111,193.333333 C462.714837,192.872822 463.212969,192.462686 463.790521,192.102912 C464.368074,191.743137 465.01781,191.455322 465.739751,191.239458 C466.461692,191.023593 467.241376,190.915663 468.078827,190.915663 C469.407198,190.915663 470.555066,191.117133 471.522467,191.52008 C472.489867,191.923027 473.291209,192.484267 473.926517,193.203815 C474.561825,193.923364 475.031079,194.794004 475.334294,195.815763 C475.637509,196.837522 475.789115,197.952805 475.789115,199.161647 L475.789115,211.638554 L472.410449,211.638554 L472.410449,199.507028 C472.410449,197.808894 472.035046,196.470554 471.284228,195.491968 C470.533409,194.513382 469.363883,194.024096 467.775614,194.024096 C466.678264,194.024096 465.732536,194.211176 464.938401,194.585341 C464.144266,194.959507 463.494529,195.491964 462.989171,196.182731 C462.483812,196.873497 462.108409,197.69377 461.862949,198.643574 C461.617489,199.593378 461.494761,200.643903 461.494761,201.795181 L461.494761,211.638554 L458.116096,211.638554 L458.116096,196.225904 Z M500.306097,207.968876 C499.093236,209.5231 497.764885,210.609602 496.321004,211.228414 C494.877123,211.847225 493.202246,212.156627 491.296322,212.156627 C489.708053,212.156627 488.278632,211.876007 487.008016,211.314759 C485.737401,210.753511 484.661725,209.997997 483.780958,209.048193 C482.90019,208.098389 482.221576,206.97591 481.745095,205.680723 C481.268614,204.385536 481.030378,203.004023 481.030378,201.536145 C481.030378,199.98192 481.290272,198.55004 481.81007,197.240462 C482.329867,195.930884 483.051797,194.808405 483.975881,193.872992 C484.899965,192.937579 485.997298,192.210846 487.267914,191.692771 C488.538529,191.174696 489.924634,190.915663 491.426271,190.915663 C492.841275,190.915663 494.140748,191.15311 495.324731,191.628012 C496.508714,192.102914 497.526635,192.79367 498.378525,193.700301 C499.230415,194.606932 499.887371,195.71502 500.349413,197.024598 C500.811455,198.334177 501.042472,199.823619 501.042472,201.492972 L501.042472,202.572289 L484.66894,202.572289 C484.726696,203.435747 484.936055,204.263216 485.297026,205.054719 C485.657996,205.846222 486.12725,206.536978 486.704803,207.127008 C487.282355,207.717038 487.960969,208.184737 488.740665,208.53012 C489.520361,208.875504 490.372238,209.048193 491.296322,209.048193 C492.769081,209.048193 494.010801,208.789159 495.021517,208.271084 C496.032234,207.753009 496.941866,206.9903 497.750439,205.982932 L500.306097,207.968876 Z M497.40391,199.722892 C497.346154,197.995975 496.783049,196.614463 495.714577,195.578313 C494.646105,194.542163 493.173368,194.024096 491.296322,194.024096 C489.419277,194.024096 487.903224,194.542163 486.748119,195.578313 C485.593014,196.614463 484.899961,197.995975 484.66894,199.722892 L497.40391,199.722892 Z M518.932072,181.072289 L526.772309,181.072289 C528.245067,181.072289 529.710585,181.158634 531.168905,181.331325 C532.627225,181.504017 533.933918,181.878177 535.089023,182.453815 C536.244128,183.029454 537.182637,183.871313 537.904578,184.979418 C538.626518,186.087522 538.987483,187.591356 538.987483,189.490964 C538.987483,191.735955 538.308869,193.54919 536.951621,194.930723 C535.594372,196.312256 533.717355,197.190092 531.320512,197.564257 L540.027073,211.638554 L535.565502,211.638554 L527.248787,197.909639 L522.570635,197.909639 L522.570635,211.638554 L518.932072,211.638554 L518.932072,181.072289 Z M522.570635,194.542169 L525.819352,194.542169 C526.830069,194.542169 527.876867,194.513387 528.959778,194.455823 C530.042689,194.398259 531.038952,194.21118 531.948597,193.894578 C532.858242,193.577977 533.609049,193.081496 534.201041,192.40512 C534.793032,191.728745 535.089023,190.757369 535.089023,189.490964 C535.089023,188.39725 534.872444,187.519414 534.43928,186.85743 C534.006116,186.195445 533.435791,185.684573 532.728289,185.324799 C532.020787,184.965025 531.226665,184.727578 530.345897,184.61245 C529.465129,184.497322 528.577156,184.439759 527.681949,184.439759 L522.570635,184.439759 L522.570635,194.542169 Z M545.095071,191.433735 L548.473736,191.433735 L548.473736,211.638554 L545.095071,211.638554 L545.095071,191.433735 Z M544.315379,183.533133 C544.315379,182.871148 544.553616,182.295518 545.030096,181.806225 C545.506577,181.316932 546.09134,181.072289 546.784403,181.072289 C547.477466,181.072289 548.06223,181.316932 548.53871,181.806225 C549.015191,182.295518 549.253428,182.871148 549.253428,183.533133 C549.253428,184.252681 549.02241,184.842702 548.560368,185.303213 C548.098326,185.763724 547.506344,185.993976 546.784403,185.993976 C546.062463,185.993976 545.47048,185.763724 545.008438,185.303213 C544.546396,184.842702 544.315379,184.252681 544.315379,183.533133 Z M575.416426,210.731928 C575.416426,214.416016 574.470698,217.215017 572.579214,219.129016 C570.687729,221.043015 567.951615,222 564.37079,222 C562.378233,222 560.580628,221.712185 558.97792,221.136546 C557.375212,220.560907 555.85194,219.567945 554.408059,218.157631 L556.833767,215.394578 C557.902239,216.545856 559.035669,217.416496 560.23409,218.006526 C561.432512,218.596556 562.811398,218.891566 564.37079,218.891566 C565.872426,218.891566 567.121365,218.66851 568.117643,218.22239 C569.113921,217.77627 569.900825,217.171858 570.478377,216.409137 C571.05593,215.646415 571.46021,214.775775 571.691231,213.797189 C571.922252,212.818603 572.037761,211.796859 572.037761,210.731928 L572.037761,208.141566 L571.951129,208.141566 C571.142555,209.436753 570.088538,210.386543 568.789044,210.990964 C567.489551,211.595385 566.1612,211.89759 564.803952,211.89759 C563.215682,211.89759 561.757384,211.638557 560.429013,211.120482 C559.100643,210.602407 557.959994,209.882869 557.007032,208.961847 C556.05407,208.040825 555.317702,206.947128 554.797905,205.680723 C554.278107,204.414318 554.018213,203.032805 554.018213,201.536145 C554.018213,199.895574 554.278107,198.413327 554.797905,197.089357 C555.317702,195.765388 556.046851,194.650105 556.985374,193.743474 C557.923897,192.836843 559.057326,192.138891 560.385697,191.649598 C561.714068,191.160305 563.186805,190.915663 564.803952,190.915663 C565.497015,190.915663 566.190068,190.994812 566.883131,191.153112 C567.576194,191.311413 568.247588,191.556056 568.897335,191.887048 C569.547082,192.21804 570.131845,192.635372 570.651642,193.139056 C571.171439,193.64274 571.604597,194.225566 571.951129,194.88755 L572.037761,194.88755 L572.037761,191.433735 L575.416426,191.433735 L575.416426,210.731928 Z M557.656775,201.536145 C557.656775,202.572294 557.844477,203.529279 558.219886,204.407129 C558.595295,205.284978 559.107865,206.047688 559.757612,206.695281 C560.407359,207.342875 561.165385,207.853746 562.031714,208.227912 C562.898042,208.602077 563.822113,208.789157 564.803952,208.789157 C565.959057,208.789157 566.984197,208.587686 567.879404,208.184739 C568.77461,207.781792 569.532636,207.242139 570.153505,206.565763 C570.774374,205.889388 571.243629,205.112287 571.561283,204.234438 C571.878936,203.356589 572.037761,202.428385 572.037761,201.449799 C572.037761,200.356086 571.864498,199.355928 571.517966,198.449297 C571.171435,197.542666 570.680523,196.75837 570.045215,196.096386 C569.409907,195.434401 568.644661,194.923529 567.749455,194.563755 C566.854249,194.203981 565.872424,194.024096 564.803952,194.024096 C563.73548,194.024096 562.760874,194.218372 561.880107,194.606928 C560.999339,194.995484 560.248532,195.527942 559.627663,196.204317 C559.006794,196.880693 558.523101,197.672184 558.17657,198.578815 C557.830038,199.485446 557.656775,200.471213 557.656775,201.536145 Z M581.653962,179 L585.032628,179 L585.032628,194.23996 L585.11926,194.23996 C585.350281,193.837013 585.66793,193.441267 586.072217,193.052711 C586.476504,192.664155 586.960197,192.311581 587.523311,191.99498 C588.086424,191.678379 588.714503,191.419345 589.407566,191.217871 C590.100629,191.016398 590.836998,190.915663 591.616694,190.915663 C592.945064,190.915663 594.092933,191.117133 595.060333,191.52008 C596.027734,191.923027 596.829076,192.484267 597.464384,193.203815 C598.099691,193.923364 598.568946,194.794004 598.872161,195.815763 C599.175376,196.837522 599.326981,197.952805 599.326981,199.161647 L599.326981,211.638554 L595.948316,211.638554 L595.948316,199.507028 C595.948316,197.808894 595.572912,196.470554 594.822094,195.491968 C594.071276,194.513382 592.901749,194.024096 591.31348,194.024096 C590.21613,194.024096 589.270402,194.211176 588.476267,194.585341 C587.682133,194.959507 587.032396,195.491964 586.527037,196.182731 C586.021679,196.873497 585.646276,197.69377 585.400816,198.643574 C585.155356,199.593378 585.032628,200.643903 585.032628,201.795181 L585.032628,211.638554 L581.653962,211.638554 L581.653962,179 Z M616.826735,194.283133 L610.849096,194.283133 L610.849096,204.385542 C610.849096,205.047527 610.863535,205.659134 610.892413,206.220382 C610.92129,206.781629 611.036799,207.270915 611.238942,207.688253 C611.441086,208.105591 611.744296,208.436578 612.148583,208.681225 C612.55287,208.925871 613.130414,209.048193 613.881232,209.048193 C614.372152,209.048193 614.877502,208.99063 615.3973,208.875502 C615.917097,208.760374 616.408009,208.587685 616.870051,208.35743 L617,211.422691 C616.422447,211.681728 615.77993,211.868808 615.072428,211.983936 C614.364926,212.099063 613.693532,212.156627 613.058224,212.156627 C611.845363,212.156627 610.877977,211.998328 610.156037,211.681727 C609.434096,211.365126 608.870991,210.919012 608.466704,210.343373 C608.062417,209.767735 607.795303,209.055392 607.665354,208.206325 C607.535405,207.357258 607.470431,206.414664 607.470431,205.378514 L607.470431,194.283133 L603.052176,194.283133 L603.052176,191.433735 L607.470431,191.433735 L607.470431,185.691767 L610.849096,185.691767 L610.849096,191.433735 L616.826735,191.433735 L616.826735,194.283133 Z" id="PurchaseProtectionDoneRight" fill="#090637" fill-rule="nonzero"></path>
    </g>
</svg>